<?xml version="1.0" encoding="utf-8"?>
<!-- Generator: Adobe Illustrator 24.0.1, SVG Export Plug-In . SVG Version: 6.00 Build 0)  -->
<svg version="1.1" id="Layer_1" xmlns="http://www.w3.org/2000/svg" xmlns:xlink="http://www.w3.org/1999/xlink" x="0px" y="0px"
	 viewBox="0 0 500 500" style="enable-background:new 0 0 500 500;" xml:space="preserve">
<style type="text/css">
	.st0{fill:#66C1BF;}
	.st1{fill:#794796;}
	.st2{fill:#F6C2B9;}
	.st3{fill:#F9F4EA;}
</style>
<g>
	<path class="st0" d="M460.8,158.1c0,60.4,0.8,120.8-0.2,181.1c-0.4,23.2-12.1,40.8-33.9,51.4c-11.4,5.5-21.6,13.5-32.7,19.7
		c-25.4,14.2-50,29.8-75.3,44.3c-13,7.4-25.4,16.1-38.4,23.6c-17.3,9.9-36,11.3-53.5,1.8c-26.7-14.5-52.3-30.8-78.5-46.2
		c-19.4-11.4-39-22.6-58.5-34c-7.9-4.6-16-9.1-23.6-14.2c-12.7-8.6-20.8-20.6-23.9-35.8c1.3-3.5,4.5-4.8,7.5-6.3
		c29.7-14.9,59.1-30.6,88.2-46.8c2.2-1.2,4.4-2.7,7.2-2.3c3.7,1.6,3.7,5.4,4.8,8.5c3.9,11,9.4,20.2,20.5,26
		c20,10.4,38.9,22.8,57.7,35.1c14.4,9.3,28.5,8.2,42.7,1c18.8-9.5,36.1-21.4,54-32.4c6.6-4.1,13.4-8,19.5-12.8
		c11.6-9.2,11-19.6-1.8-26.9c-7.2-4.1-13.7-9.3-21.3-12.8c-9.5-4.4-13.5-3.8-20.8,3.7c-10,10.3-20.8,19.3-34.1,25.2
		c-10.8,4.8-21.2,4.4-31.5-0.6c-12.3-6-22.7-14.3-30-26.2c-1.5-2.4-2.9-5-3.6-7.7c-3.8-16.1-5.1-32.5,0.4-48.2
		c11.9-34,49.6-45.6,79.2-25.1c7.3,5.1,13.5,11.3,19.9,17.3c7.8,7.3,14.4,8.1,23.9,3c7.8-4.1,15.5-8.4,23.5-12
		c29.5-7.7,55.9-22.5,82.3-37.1c7.5-4.1,15.1-7.8,22.4-12.3C455.2,158.4,457.8,156.8,460.8,158.1z"/>
	<path class="st1" d="M460.8,158.1c-26.1,14.1-51.6,29.3-78.6,41.6c-10.7,4.9-21.8,9.1-33.6,10.9c5.7-22.5,4.1-26.2-16.5-38.4
		c-18.3-10.9-36.5-21.8-54.8-32.5c-16.8-9.9-34.1-10.3-50.9-0.7c-19.1,10.9-38.2,21.9-56.5,34.1c-15.2,10.2-23.5,23.8-22.7,43
		c0.9,23,0.2,46.1,0.2,69.2c0,3.3,0.6,6.8-1.3,9.9c-34.5,18.2-69,36.4-103.5,54.5c-1.6-4-1.9-8.2-2.1-12.4c-0.9-26-0.4-52-0.3-78
		c0-1.5,0-3,0-4.5c-0.2-21.8-0.3-43.7,0-65.5c0-1,0-2,0-3c-0.3-6.3-0.3-12.5,0-18.8c0-1,0-2,0-3c-0.3-3.2-0.5-6.3,0.2-9.5
		c3-23.4,16.3-38.3,37.2-48.7c11.7-5.9,22.4-14.1,33.9-20.7c34.4-19.7,68.2-40.3,102.2-60.6c26.6-15.9,50.7-14.3,75.9,0.9
		c21,12.7,42.3,24.9,63.4,37.4c17.8,10.5,35.6,21.1,53.4,31.7c10.4,6.2,21.5,11.7,31,19.1C451.4,125.1,459.9,139.8,460.8,158.1z"/>
	<path class="st2" d="M40.1,259.3c0.1,26,0.2,52,0.3,78c-1.6-2.3-1.1-5-1.1-7.5c-0.1-21.2-0.1-42.4,0-63.6
		C39.2,263.8,38.7,261.4,40.1,259.3z"/>
	<path class="st2" d="M40.1,189.2c0.6,21.8,0.7,43.7,0,65.5c-2.1-15.4-0.6-30.9-0.8-46.3C39.1,202,38.1,195.5,40.1,189.2z"/>
	<path class="st2" d="M40.1,167.4c0,6.3,0,12.5,0,18.8C38.6,180,38.6,173.7,40.1,167.4z"/>
	<path class="st2" d="M40.3,155c-0.1,3.2-0.1,6.3-0.2,9.5C38.7,161.3,38.6,158.1,40.3,155z"/>
	<path class="st3" d="M146,295.1c-1.9-18.1-0.5-36.2-0.8-54.3c-0.2-9.8,0.3-19.7-0.1-29.5c-0.6-15.3,6-27.4,17.7-36
		c22-16.1,45.7-30,69.9-42.3c13.4-6.8,29.7-4.9,43.9,3.5c22.1,13,44.1,26.4,66.4,39.1c12,6.9,17.3,24.7,5.7,34.9
		c-8.8,6.2-18.4,11-28.2,15.1c-6.7,2.8-13.8,2.9-19.6-4c-9.3-11.1-20.6-19.8-33.7-26c-11.2-5.3-23.1-5-33.8,0.2
		c-13.5,6.6-26.8,15.4-30.2,31c-6,27.6-4.8,54.9,22.4,73.5c23.6,16.1,41.7,9.2,63.9-8.7c2.6-2.1,4.9-4.7,7.2-7.1
		c10.9-11.2,18-13,30.7-4.3c7.1,4.9,14.9,8.7,21.7,14.1c6.6,5.3,8.2,11.3,4.1,18.8c-3.7,6.9-10.1,10.8-16.4,14.7
		c-14.2,9-28.2,18.2-42.7,26.6c-15.2,8.8-29.7,20.1-49.1,18.1c-9.6-1-16.9-6.5-24.7-11.2c-16.2-9.8-31.8-20.6-48.6-29.3
		C156.6,324.3,148.3,311.8,146,295.1z"/>
</g>
</svg>
